<?xml version="1.0" encoding="utf-8"?>
<!-- Generator: Adobe Illustrator 14.0.0, SVG Export Plug-In . SVG Version: 6.00 Build 43363)  -->
<!DOCTYPE svg PUBLIC "-//W3C//DTD SVG 1.1//EN" "http://www.w3.org/Graphics/SVG/1.1/DTD/svg11.dtd">
<svg version="1.1" id="Layer_1" xmlns="http://www.w3.org/2000/svg" xmlns:xlink="http://www.w3.org/1999/xlink" x="0px" y="0px"
	 width="500px" height="130px" viewBox="0 0 500 130" enable-background="new 0 0 500 130" xml:space="preserve">
<g>
	<g>
		<path fill="#365D9B" d="M150.308,126.543c-4.383,1.052-8.166,1.579-11.35,1.579c-6.038,0-10.677-1.474-13.916-4.421
			c-3.24-2.948-4.859-7.171-4.859-12.671c0-5.455,1.62-9.653,4.859-12.593c3.239-2.94,7.854-4.411,13.845-4.411
			c3.832,0,7.63,0.417,11.397,1.251v5.288c-4.367-1.389-7.953-2.086-10.759-2.086c-3.704,0-6.565,1.098-8.583,3.293
			c-2.018,2.193-3.027,5.301-3.027,9.325c0,3.891,1.079,6.943,3.24,9.159c2.159,2.217,5.138,3.324,8.938,3.324
			c0.835,0,1.812-0.108,2.932-0.33v-10.684h7.283V126.543z"/>
		<path fill="#365D9B" d="M175.684,126.499c-3.327,0.906-6.479,1.359-9.459,1.359c-4.335,0-7.756-1.14-10.262-3.422
			c-2.506-2.281-3.76-5.396-3.76-9.347c0-3.73,1.147-6.732,3.44-9.007s5.324-3.412,9.092-3.412c3.799,0,6.574,1.111,8.324,3.337
			c1.75,2.223,2.625,5.74,2.625,10.553h-16.104c0.473,4.594,3.192,6.889,8.158,6.889c2.349,0,4.998-0.505,7.945-1.514V126.499z
			 M159.486,112.895h9.316c0-4.108-1.427-6.164-4.28-6.164C161.622,106.73,159.943,108.786,159.486,112.895z"/>
		<path fill="#365D9B" d="M178.998,127.31v-24.09h6.715v4.543c2.049-3.395,4.966-5.092,8.749-5.092c1.955,0,3.563,0.447,4.824,1.339
			c1.261,0.894,2.033,2.142,2.317,3.753c2.427-3.395,5.36-5.092,8.796-5.092c4.745,0,7.118,2.429,7.118,7.285v17.354h-6.716v-15.226
			c0-2.853-1.024-4.279-3.073-4.279c-2.098,0-4.139,1.403-6.125,4.214v15.291h-6.716v-15.226c0-2.867-1.032-4.3-3.097-4.3
			c-2.065,0-4.091,1.41-6.077,4.234v15.291H178.998z"/>
		<path fill="#365D9B" d="M243.177,126.499c-3.326,0.906-6.479,1.359-9.458,1.359c-4.335,0-7.756-1.14-10.263-3.422
			c-2.506-2.281-3.76-5.396-3.76-9.347c0-3.73,1.146-6.732,3.44-9.007c2.295-2.274,5.326-3.412,9.093-3.412
			c3.799,0,6.574,1.111,8.324,3.337c1.75,2.223,2.624,5.74,2.624,10.553h-16.104c0.473,4.594,3.192,6.889,8.159,6.889
			c2.348,0,4.997-0.505,7.944-1.514V126.499z M226.979,112.895h9.318c0-4.108-1.428-6.164-4.281-6.164
			C229.115,106.73,227.436,108.786,226.979,112.895z"/>
		<path fill="#365D9B" d="M267.63,126.499c-3.326,0.906-6.479,1.359-9.459,1.359c-4.336,0-7.756-1.14-10.263-3.422
			c-2.506-2.281-3.76-5.396-3.76-9.347c0-3.73,1.146-6.732,3.44-9.007c2.295-2.274,5.326-3.412,9.093-3.412
			c3.799,0,6.574,1.111,8.324,3.337c1.75,2.223,2.625,5.74,2.625,10.553h-16.104c0.473,4.594,3.191,6.889,8.158,6.889
			c2.349,0,4.997-0.505,7.945-1.514V126.499z M251.431,112.895h9.318c0-4.108-1.428-6.164-4.281-6.164
			C253.568,106.73,251.889,108.786,251.431,112.895z"/>
		<path fill="#365D9B" d="M270.943,127.31v-24.09h7v4.543c2.284-3.395,5.233-5.092,8.843-5.092c2.318,0,4.147,0.681,5.487,2.042
			c1.339,1.357,2.009,3.217,2.009,5.572v17.024h-6.998v-15.424c0-2.733-0.979-4.102-2.933-4.102c-2.223,0-4.359,1.456-6.408,4.365
			v15.16H270.943z"/>
		<path fill="#365D9B" d="M312.21,127.18c-1.671,0.454-2.988,0.679-3.949,0.679c-6.069,0-9.104-2.631-9.104-7.896v-12.683h-2.909
			v-4.06h2.909v-4.06l6.999-0.745v4.805h5.558v4.06h-5.558v11.826c0,2.954,1.301,4.432,3.902,4.432c0.598,0,1.315-0.104,2.151-0.308
			V127.18z"/>
		<path fill="#365D9B" d="M335.67,126.499c-3.325,0.906-6.479,1.359-9.459,1.359c-4.335,0-7.756-1.14-10.262-3.422
			c-2.507-2.281-3.761-5.396-3.761-9.347c0-3.73,1.146-6.732,3.44-9.007c2.295-2.274,5.325-3.412,9.093-3.412
			c3.799,0,6.574,1.111,8.324,3.337c1.75,2.223,2.624,5.74,2.624,10.553h-16.104c0.474,4.594,3.192,6.889,8.159,6.889
			c2.348,0,4.997-0.505,7.944-1.514V126.499z M319.472,112.895h9.318c0-4.108-1.429-6.164-4.281-6.164
			C321.608,106.73,319.929,108.786,319.472,112.895z"/>
		<path fill="#365D9B" d="M351.021,127.31V94.839h12.203c4.256,0,7.295,0.661,9.115,1.984c1.82,1.326,2.731,3.537,2.731,6.638
			c0,3.511-1.219,6.243-3.654,8.195c-2.435,1.953-5.845,2.929-10.226,2.929h-3.027v12.725H351.021z M358.163,110.13h1.418
			c2.49,0,4.458-0.536,5.9-1.611c1.442-1.076,2.164-2.534,2.164-4.377c0-3.232-2.215-4.85-6.646-4.85h-2.837V110.13z"/>
		<path fill="#365D9B" d="M397.938,126.499c-3.326,0.906-6.479,1.359-9.459,1.359c-4.335,0-7.756-1.14-10.263-3.422
			c-2.506-2.281-3.76-5.396-3.76-9.347c0-3.73,1.146-6.732,3.44-9.007c2.295-2.274,5.325-3.412,9.093-3.412
			c3.799,0,6.574,1.111,8.324,3.337c1.75,2.223,2.624,5.74,2.624,10.553h-16.104c0.474,4.594,3.192,6.889,8.159,6.889
			c2.348,0,4.997-0.505,7.944-1.514V126.499z M381.74,112.895h9.318c0-4.108-1.429-6.164-4.281-6.164
			C383.877,106.73,382.197,108.786,381.74,112.895z"/>
		<path fill="#365D9B" d="M401.252,127.31V92.665h7v21.788h0.448l9.246-11.233h5.818l-8.537,10.312l11.209,13.778h-8.513
			l-9.224-12.044h-0.448v12.044H401.252z"/>
		<path fill="#365D9B" d="M449.116,126.499c-3.326,0.906-6.479,1.359-9.459,1.359c-4.336,0-7.757-1.14-10.263-3.422
			c-2.506-2.281-3.76-5.396-3.76-9.347c0-3.73,1.146-6.732,3.439-9.007c2.296-2.274,5.326-3.412,9.093-3.412
			c3.8,0,6.575,1.111,8.325,3.337c1.75,2.223,2.624,5.74,2.624,10.553h-16.104c0.473,4.594,3.192,6.889,8.159,6.889
			c2.348,0,4.996-0.505,7.944-1.514V126.499z M432.917,112.895h9.318c0-4.108-1.428-6.164-4.28-6.164
			C435.055,106.73,433.375,108.786,432.917,112.895z"/>
		<path fill="#365D9B" d="M452.428,127.31V92.665h7v34.645H452.428z"/>
		<path fill="#365D9B" d="M476.977,124.721c-2.333,2.094-4.833,3.138-7.495,3.138c-2.271,0-4.116-0.644-5.533-1.931
			c-1.42-1.286-2.13-2.955-2.13-5.002c0-2.663,1.148-4.714,3.441-6.154c2.294-1.44,5.575-2.161,9.848-2.161h1.869v-2.193
			c0-2.503-1.537-3.752-4.611-3.752c-2.728,0-5.485,0.716-8.276,2.149v-4.477c3.169-1.109,6.305-1.667,9.411-1.667
			c6.794,0,10.192,2.51,10.192,7.526v10.663c0,1.888,0.654,2.83,1.963,2.83c0.235,0,0.543-0.028,0.921-0.088l0.166,3.643
			c-1.481,0.409-2.79,0.613-3.926,0.613c-2.869,0-4.714-1.044-5.533-3.138H476.977z M476.977,121.233v-4.893h-1.656
			c-4.523,0-6.785,1.317-6.785,3.948c0,0.894,0.327,1.643,0.981,2.249c0.654,0.607,1.461,0.911,2.423,0.911
			C473.579,123.449,475.259,122.711,476.977,121.233z"/>
	</g>
</g>
<path fill="#365D9B" d="M43.149,86.538V82.29c0,0-20.985-2.747-30.728-17.986c0,0,1.499,66.255,69.2,61.481
	c0,0-38.472-39.247-2.499-117.69c0,0,55.048,4.574,53.697,62.206c0,0-1.397,13.507-62.585,12.156v8.555
	c0,0,64.836-0.9,68.889-20.711c4.052-19.812-9.005-71.59-76.542-67.988c0,0-34.219,58.533-5.403,117.065
	c0,0-29.313-4.506-38.722-41.875C18.456,77.503,25.069,82.063,43.149,86.538z"/>
</svg>
