<?xml version="1.0" encoding="utf-8"?>
<!-- Generator: Adobe Illustrator 14.0.0, SVG Export Plug-In . SVG Version: 6.00 Build 43363)  -->
<!DOCTYPE svg PUBLIC "-//W3C//DTD SVG 1.1//EN" "http://www.w3.org/Graphics/SVG/1.1/DTD/svg11.dtd">
<svg version="1.1" id="Layer_1" xmlns="http://www.w3.org/2000/svg" xmlns:xlink="http://www.w3.org/1999/xlink" x="0px" y="0px"
	 width="1000px" height="600px" viewBox="0 0 1000 600" enable-background="new 0 0 1000 600" xml:space="preserve">
<g>
	<polygon fill="#FFFFFF" points="456.667,0.499 378.333,0.499 378.333,193.757 0,193.757 0,261.173 456.667,261.173 	"/>
	<polygon fill="#FFFFFF" points="0,339.076 0,406.492 378.333,406.492 378.333,599.751 456.667,599.751 456.667,339.076 	"/>
	<polygon fill="#FFFFFF" points="621.666,0.499 543.334,0.499 543.334,261.173 1000,261.173 1000,193.757 621.666,193.757 	"/>
	<polygon fill="#FFFFFF" points="543.334,599.751 621.666,599.751 621.666,406.492 1000,406.492 1000,339.076 543.334,339.076 	"/>
	<polygon fill="#009645" points="543.334,0.499 456.667,0.499 456.667,261.173 0,261.173 0,339.076 456.667,339.076 
		456.667,599.751 543.334,599.751 543.334,339.076 1000,339.076 1000,261.173 543.334,261.173 	"/>
	<polygon fill="#ED2E38" points="378.333,0.499 378.333,-1 0,-1 0,0.499 0,193.757 378.333,193.757 	"/>
	<polygon fill="#ED2E38" points="621.666,599.751 621.666,601.249 1000,601.249 1000,599.751 1000,406.492 621.666,406.492 	"/>
	<polygon fill="#006EC7" points="621.666,-1 621.666,0.499 621.666,193.757 1000,193.757 1000,0.499 1000,-1 	"/>
	<polygon fill="#006EC7" points="378.333,406.492 0,406.492 0,599.751 0,601.249 378.333,601.249 378.333,599.751 	"/>
</g>
</svg>
