<?xml version="1.0" encoding="utf-8"?>
<!-- Generator: Adobe Illustrator 14.0.0, SVG Export Plug-In . SVG Version: 6.00 Build 43363)  -->
<!DOCTYPE svg PUBLIC "-//W3C//DTD SVG 1.1//EN" "http://www.w3.org/Graphics/SVG/1.1/DTD/svg11.dtd">
<svg version="1.1" id="Layer_1" xmlns="http://www.w3.org/2000/svg" xmlns:xlink="http://www.w3.org/1999/xlink" x="0px" y="0px"
	 width="266.893px" height="266.895px" viewBox="0 0 266.893 266.895" enable-background="new 0 0 266.893 266.895"
	 xml:space="preserve">
<g>
	<g>
		<path fill="#FFFFFF" d="M264.926,50.921c-9.68,4.289-20.063,7.197-30.974,8.496c11.141-6.672,19.668-17.254,23.71-29.825
			c-10.452,6.179-21.985,10.665-34.278,13.097c-9.841-10.5-23.841-17.04-39.368-17.04c-29.793,0-53.946,24.155-53.946,53.929
			c0,4.223,0.476,8.347,1.396,12.292C86.641,89.618,46.892,68.142,20.289,35.508c-4.65,7.953-7.296,17.22-7.296,27.113
			c0,18.715,9.531,35.229,23.991,44.891c-8.84-0.295-17.155-2.727-24.434-6.77v0.674c0,26.126,18.601,47.932,43.265,52.895
			c-4.519,1.215-9.284,1.888-14.213,1.888c-3.483,0-6.852-0.344-10.154-1.001c6.868,21.442,26.784,37.035,50.38,37.464
			c-18.454,14.46-41.721,23.055-66.993,23.055c-4.354,0-8.643-0.265-12.866-0.739c23.876,15.329,52.221,24.27,82.685,24.27
			c99.232,0,153.474-82.192,153.474-153.474l-0.18-6.983C248.542,71.23,257.711,61.733,264.926,50.921z"/>
	</g>
</g>
</svg>
