<?xml version="1.0" encoding="utf-8"?>
<!-- Generator: Adobe Illustrator 14.0.0, SVG Export Plug-In . SVG Version: 6.00 Build 43363)  -->
<!DOCTYPE svg PUBLIC "-//W3C//DTD SVG 1.1//EN" "http://www.w3.org/Graphics/SVG/1.1/DTD/svg11.dtd">
<svg version="1.1" id="Layer_1" xmlns="http://www.w3.org/2000/svg" xmlns:xlink="http://www.w3.org/1999/xlink" x="0px" y="0px"
	 width="1000px" height="600px" viewBox="0 0 1000 600" enable-background="new 0 0 1000 600" xml:space="preserve">
<g>
	<polygon fill="#00247D" points="222.404,400.17 0,400.17 0,600.012 0.138,533.339 	"/>
	<polygon fill="#00247D" points="109.98,0.114 416.88,184.018 416.88,0 0,0 0.291,0.175 	"/>
	<polygon fill="#00247D" points="889.35,0 583.633,0 583.633,183.621 	"/>
	<polygon fill="#00247D" points="0.029,68.058 0.061,43.772 0,43.736 0,200.085 220.255,200.085 	"/>
	<polygon fill="#00247D" points="1000.487,600.255 1000.514,600.255 1000.514,556.796 1000.485,558.538 	"/>
	<polygon fill="#00247D" points="779.967,200.085 1000.514,200.085 1000.514,0.023 1000.463,68.008 	"/>
	<polygon fill="#00247D" points="583.633,417.7 583.633,600.255 1000.487,600.255 888.932,600.176 	"/>
	<polygon fill="#00247D" points="111.804,600.172 74.729,600.119 74.597,600.198 0.239,600.255 416.88,600.255 416.88,417.508 	"/>
	<polygon fill="#00247D" points="889.35,0 924.982,0.007 924.992,0.001 924.987,0.001 924.994,0 924.992,0.001 929.023,0.008 
		1000.514,0.023 1000.514,0 	"/>
	<polygon fill="#00247D" points="1000.484,533.967 1000.485,556.779 1000.514,556.796 1000.514,400.17 777.461,400.17 	"/>
	<polygon fill="#00247D" points="0,600.012 0,600.255 0.239,600.255 0.643,600.013 	"/>
	<polygon fill="#FFFFFF" points="997.25,0.125 666.644,200.085 592.519,200.085 924.982,0.007 889.35,0 583.633,183.621 583.633,0 
		550.282,0 550.282,240.102 1000.514,240.102 1000.514,200.085 779.967,200.085 1000.463,68.008 1000.514,0.023 929.023,0.008 	"/>
	<polygon fill="#CF142B" points="74.729,600.119 407.229,400.17 333.99,400.17 0.643,600.013 0.239,600.255 74.597,600.198 	"/>
	<polygon fill="#CF142B" points="924.987,0.001 924.992,0.001 924.994,0 	"/>
	<polygon fill="#CF142B" points="212.364,171.52 259.585,200.085 332.544,200.085 0.291,0.175 0,0 0,43.736 0.061,43.772 	"/>
	<polygon fill="#CF142B" points="740.052,400.17 665.846,400.17 999.815,599.912 1000.485,558.538 1000.514,556.796 
		1000.485,556.779 	"/>
	<polygon fill="#CF142B" points="666.644,200.085 997.25,0.125 929.023,0.008 924.992,0.001 924.982,0.007 592.519,200.085 	"/>
	<polygon fill="#FFFFFF" points="550.282,600.255 583.633,600.255 583.633,417.7 888.932,600.176 1000.487,600.255 
		1000.485,558.538 999.815,599.912 665.846,400.17 740.052,400.17 1000.485,556.779 1000.484,533.967 777.461,400.17 
		1000.514,400.17 1000.514,360.152 550.282,360.152 	"/>
	<polygon fill="#FFFFFF" points="450.231,0 416.88,0 416.88,184.018 109.98,0.114 0.291,0.175 332.544,200.085 259.585,200.085 
		212.364,171.52 0.061,43.772 0.029,68.058 220.255,200.085 0,200.085 0,240.102 450.231,240.102 	"/>
	<polygon fill="#FFFFFF" points="0,360.152 0,400.17 222.404,400.17 0.138,533.339 0,600.012 0.643,600.013 333.99,400.17 
		407.229,400.17 74.729,600.119 111.804,600.172 416.88,417.508 416.88,600.255 450.231,600.255 450.231,360.152 	"/>
	<polygon fill="#CF142B" points="550.282,0 450.231,0 450.231,240.102 0,240.102 0,360.152 450.231,360.152 450.231,600.255 
		550.282,600.255 550.282,360.152 1000.514,360.152 1000.514,240.102 550.282,240.102 	"/>
</g>
</svg>
